<?xml version="1.0" encoding="UTF-8"?>
<svg id="Layer_2" data-name="Layer 2" xmlns="http://www.w3.org/2000/svg" xmlns:xlink="http://www.w3.org/1999/xlink" viewBox="0 0 759.09 1513.08">
  <defs>
    <style>
      .cls-1 {
        fill: url(#linear-gradient-2);
      }

      .cls-2 {
        fill: none;
        stroke: url(#linear-gradient);
        stroke-miterlimit: 10;
        stroke-width: 98px;
      }

      .cls-3 {
        fill: #fff;
      }

      .cls-4 {
        fill: url(#linear-gradient-4);
      }

      .cls-5 {
        fill: url(#linear-gradient-3);
      }

      .cls-6 {
        fill: url(#linear-gradient-5);
      }

      .cls-7 {
        fill: url(#linear-gradient-8);
      }

      .cls-8 {
        fill: url(#linear-gradient-7);
      }

      .cls-9 {
        fill: #24b34b;
      }

      .cls-10 {
        fill: url(#linear-gradient-6);
      }
    </style>
    <linearGradient id="linear-gradient" x1="229.68" y1="-43.43" x2="472.2" y2="1157.35" gradientUnits="userSpaceOnUse">
      <stop offset="0" stop-color="#fcee23"/>
      <stop offset="1" stop-color="#e6bc21"/>
    </linearGradient>
    <linearGradient id="linear-gradient-2" x1="729.94" y1="1099.87" x2="729.94" y2="178.15" xlink:href="#linear-gradient"/>
    <linearGradient id="linear-gradient-3" x1="-348.23" y1="-152.61" x2="-348.23" y2="-1075.99" gradientTransform="translate(-41.79 1517.83) rotate(80.36) scale(1 .76)" xlink:href="#linear-gradient"/>
    <linearGradient id="linear-gradient-4" x1="-287.52" y1="-191.27" x2="-287.52" y2="-1130.58" gradientTransform="translate(-41.79 1517.83) rotate(80.36) scale(1 .76)" gradientUnits="userSpaceOnUse">
      <stop offset="0" stop-color="#fcee1d"/>
      <stop offset="1" stop-color="#fcee23"/>
    </linearGradient>
    <linearGradient id="linear-gradient-5" x1="379.56" y1="217.28" x2="379.56" y2="2" gradientUnits="userSpaceOnUse">
      <stop offset="0" stop-color="#e6bc21"/>
      <stop offset=".17" stop-color="#edcd21"/>
      <stop offset=".43" stop-color="#f5df22"/>
      <stop offset=".7" stop-color="#faea22"/>
      <stop offset="1" stop-color="#fcee23"/>
    </linearGradient>
    <linearGradient id="linear-gradient-6" x1="-37.55" y1="616.35" x2="203.88" y2="575.36" gradientTransform="matrix(1,0,0,1,0,0)" xlink:href="#linear-gradient-4"/>
    <linearGradient id="linear-gradient-7" x1="31.98" y1="1248.82" x2="31.98" y2="0" gradientUnits="userSpaceOnUse">
      <stop offset="0" stop-color="#e6bc21"/>
      <stop offset=".04" stop-color="#e7be21"/>
      <stop offset=".41" stop-color="#f2d822"/>
      <stop offset=".74" stop-color="#f9e822"/>
      <stop offset="1" stop-color="#fcee23"/>
    </linearGradient>
    <linearGradient id="linear-gradient-8" x1="83.79" y1="1124.89" x2="83.79" y2="114.36" gradientUnits="userSpaceOnUse">
      <stop offset="0" stop-color="#fcee23"/>
      <stop offset=".26" stop-color="#f9e822"/>
      <stop offset=".59" stop-color="#f2d822"/>
      <stop offset=".96" stop-color="#e7be21"/>
      <stop offset="1" stop-color="#e6bc21"/>
    </linearGradient>
  </defs>
  <g id="Layer_1-2" data-name="Layer 1">
    <g>
      <polygon class="cls-9" points="708.25 1083.32 59.21 1146.67 50.87 114.05 705.51 217.28 708.25 1083.32"/>
      <g>
        <g>
          <polygon class="cls-2" points="705.51 1059.51 57.35 1178.51 57.35 63.28 705.51 217.28 705.51 1059.51"/>
          <polygon class="cls-1" points="754.37 178.15 705.51 217.28 705.51 1059.51 754.37 1099.87 754.37 178.15"/>
          <polygon class="cls-5" points="705.51 1059.51 655.52 1016.71 40.4 1121.16 18.54 1183.87 705.51 1059.51"/>
          <polygon class="cls-4" points="754.37 1100.66 705.51 1059.51 57.35 1178.51 59.21 1248.82 754.37 1100.66"/>
          <polygon class="cls-6" points="705.51 217.28 57.35 59.45 4.75 2 754.37 178.15 705.51 217.28"/>
          <polygon class="cls-10" points="92.84 1181.57 59.21 1186.17 57.26 12.89 110.45 25.15 108.92 1174.68 92.84 1181.57"/>
          <polygon class="cls-8" points="59.21 1248.82 7.05 1237.49 4.75 0 57.26 12.89 59.21 1248.82"/>
          <polygon class="cls-7" points="110.32 126.09 57.26 114.36 59.02 1124.89 109.01 1109.51 110.32 126.09"/>
        </g>
        <path class="cls-3" d="M228.42,1296.81c-2.68,11.74-6.4,23.22-11.08,34.31l4.28-10.15c-5.56,13.13-12.43,25.7-20.5,37.47-2.29,3.35-4.69,6.62-7.16,9.83,2.22-2.87,4.43-5.73,6.65-8.6-8.49,10.96-18.03,21.11-28.51,30.2-2.96,2.57-6,5.05-9.11,7.45,2.87-2.22,5.73-4.43,8.6-6.65-14.01,10.78-29.39,19.68-45.66,26.56l10.15-4.28c-13.55,5.7-27.67,10.01-42.1,12.81-4.07.79-8.17,1.46-12.28,2.02l11.3-1.52c-16.73,2.23-33.7,2.48-50.48.62-5.85-.22-11.31,1-16.37,3.66-5.27,1.71-9.83,4.64-13.68,8.79-4.14,3.85-7.07,8.41-8.79,13.68-2.66,5.06-3.88,10.52-3.66,16.37l1.52,11.3c2.02,7.2,5.66,13.45,10.93,18.75,2.87,2.22,5.73,4.43,8.6,6.65,6.63,3.84,13.78,5.78,21.45,5.8,24.25,2.68,48.68.6,72.6-3.88,10.23-1.92,20.32-4.58,30.16-7.97,8.27-2.85,16.28-6.31,24.32-9.74,4.72-2.01,9.37-4.2,13.92-6.55,9.14-4.72,17.93-10.12,26.25-16.16,10.59-7.68,20.95-15.82,30.39-24.91,6.92-6.67,13.39-13.82,19.34-21.37,8.18-10.38,16.1-20.84,22.82-32.23,6.69-11.34,11.89-23.24,16.98-35.37,3.75-8.93,6.91-18.09,9.39-27.45.6-2.28,1.16-4.56,1.69-6.86,1.77-5.65,2.02-11.3.76-16.95-.26-5.66-1.94-10.92-5.04-15.8-2.67-4.95-6.32-8.93-10.95-11.92-4.1-3.76-8.92-6.29-14.45-7.61l-11.3-1.52c-7.67.02-14.82,1.96-21.45,5.8-2.87,2.22-5.73,4.43-8.6,6.65-5.27,5.3-8.91,11.55-10.93,18.75h0Z"/>
        <path class="cls-3" d="M587.09,1167.39c2.14.18,4.28.42,6.42.7-3.77-.51-7.53-1.01-11.3-1.52,12.42,1.67,24.57,5.04,36.11,9.91l-10.15-4.28c11.54,4.9,22.43,11.27,32.37,18.91-2.87-2.22-5.73-4.43-8.6-6.65,9.61,7.43,18.29,16.04,25.73,25.64-2.22-2.87-4.43-5.73-6.65-8.6,7.17,9.3,13.09,19.48,17.66,30.3l-4.28-10.15c4.9,11.69,8.2,24,9.9,36.56l-1.52-11.3c1.7,12.84,1.73,25.87.03,38.71.51-3.77,1.01-7.53,1.52-11.3-1.64,12.15-4.81,24.07-9.56,35.38l4.28-10.15c-3.93,9.29-8.86,18.14-15.02,26.14,2.22-2.87,4.43-5.73,6.65-8.6-4.58,5.89-9.79,11.25-15.69,15.83,2.87-2.22,5.73-4.43,8.6-6.65-.54.41-1.08.82-1.63,1.22-4.95,2.67-8.93,6.32-11.92,10.95-3.76,4.1-6.29,8.92-7.61,14.45-1.77,5.65-2.02,11.3-.76,16.95.26,5.66,1.94,10.92,5.04,15.8,2.22,2.87,4.43,5.73,6.65,8.6,5.3,5.27,11.55,8.91,18.75,10.93l11.3,1.52c7.67-.02,14.82-1.96,21.45-5.8,7.16-5.27,14.33-10.65,20.4-17.18,1.89-2.04,3.68-4.16,5.39-6.35,3.8-4.87,7.74-9.73,11.16-14.9,3.01-4.54,5.68-9.32,8.03-14.23,3.9-8.14,7.46-16.53,10.35-25.1,4.66-13.8,6.82-28.33,8.21-42.79,1.04-10.85.86-21.82-.53-32.63-1.16-9.05-2.26-18.09-4.41-26.97-1.28-5.29-2.86-10.51-4.73-15.63-3.09-8.41-6.58-16.75-10.61-24.76-2.41-4.79-5.12-9.44-8.09-13.91-4.73-7.12-10.03-13.9-15.49-20.45-3.28-3.93-6.78-7.69-10.46-11.24s-7.47-6.83-11.46-9.94c-6.76-5.27-13.46-10.58-20.72-15.15-4.29-2.69-8.71-5.17-13.26-7.4-2.27-1.12-4.57-2.18-6.9-3.18-5.58-2.39-11.15-4.85-16.85-6.96-9.48-3.52-19.34-6.04-29.36-7.43-6.13-.85-12.29-1.79-18.47-2.32-5.85-.22-11.31,1-16.37,3.66-5.27,1.71-9.83,4.64-13.68,8.79-4.14,3.85-7.07,8.41-8.79,13.68-2.66,5.06-3.88,10.52-3.66,16.37.51,3.77,1.01,7.53,1.52,11.3,2.02,7.2,5.66,13.45,10.93,18.75,2.87,2.22,5.73,4.43,8.6,6.65,6.63,3.84,13.78,5.78,21.45,5.8h0Z"/>
      </g>
      <g>
        <path class="cls-3" d="M279.03,490.74c19.84,14.34,56.54,21.52,110.1,21.52v86.79c-15.3,0-29.71-2.21-43.21-6.63-13.51-4.42-25.1-10.16-34.79-17.21-9.68-7.05-18.29-15.18-25.82-24.39-7.53-9.2-13.51-18.52-17.93-27.97-4.43-9.44-7.59-18.7-9.5-27.79-6.94,1.2-13.51,1.92-19.72,2.15v72.44l15.06,29.05h-87.5l15.06-29.05v-192.94l-15.06-29.05h153.49c21.04,0,37.59,4.96,49.67,14.88,12.07,9.92,18.23,22.3,18.47,37.12.48,9.56-1.43,18.65-5.74,27.25-4.3,8.61-9.99,16.14-17.03,22.59-7.05,6.46-15.42,12.43-25.1,17.93-9.68,5.5-19.49,10.1-29.41,13.81-9.92,3.71-20.26,6.88-31.02,9.5ZM238.14,384.94v87.86c11.95-.72,24.5-3.77,37.66-9.14,13.15-5.38,24.8-12.97,34.97-22.77,10.16-9.8,15.24-20.32,15.24-31.56,0-10.52-3.95-19.37-11.83-26.54-7.89-7.17-18.89-10.76-32.99-10.76-7.65,0-15.6,1.26-23.85,3.77-8.25,2.51-14.65,5.56-19.19,9.15Z"/>
        <path class="cls-3" d="M425.34,448.42l-15.06-28.69,64.91-8.25v127.67c0,15.3,6.1,22.95,18.29,22.95,11.23,0,22.83-5.74,34.79-17.21,4.3-4.3,7.77-8.72,10.4-13.27v-83.2l-15.06-28.69,65.27-8.25v158.15l15.06,29.05h-65.27v-50.21c-7.89,15.06-18.83,27.2-32.81,36.4-13.99,9.21-27.32,13.81-39.99,13.81s-22.3-3.17-29.59-9.5c-7.3-6.33-10.94-16.08-10.94-29.23v-111.53Z"/>
      </g>
      <g>
        <path class="cls-3" d="M361.04,697.67l-65.99,175.01-90.73-175.01v34.07c0,19.37,1.49,33.77,4.48,43.21,2.99,9.45,10.46,20.62,22.41,33.53,8.84,9.32,15.18,19.01,19.01,29.05,3.82,10.04,5.74,21.52,5.74,34.43h-76.03v-221.99l-15.06-29.05h68.85l73.52,142.37,53.79-142.37h72.44l-15.06,29.05v192.94l15.06,29.05h-87.5l15.06-29.05v-145.24Z"/>
        <path class="cls-3" d="M543.58,830.36c10.76,6.94,21.99,11.06,33.71,12.37,11.71,1.32,23.67-.42,35.86-5.2l4.3,5.02c-7.65,9.32-18.23,16.56-31.74,21.7-13.51,5.14-27.2,7.71-41.06,7.71-25.82,0-47.94-9.14-66.34-27.43-18.41-18.29-27.61-40.34-27.61-66.17s9.2-47.88,27.61-66.17c18.41-18.29,40.52-27.43,66.34-27.43h68.5v68.5l-52.36,27.25c-16.26,8.37-25.34,17.93-27.25,28.69-1.67,8.85,1.67,15.9,10.04,21.16ZM504.84,709.5c-6.7,3.59-10.88,10.28-12.55,20.08-1.68,9.81-.84,20.92,2.51,33.35,3.34,14.11,9.92,27.85,19.72,41.24.48-2.87.95-5.26,1.43-7.17.48-1.91,1.55-4.48,3.23-7.71,1.67-3.23,3.88-6.15,6.63-8.79,2.75-2.63,6.57-5.74,11.48-9.32,4.9-3.59,10.7-7.17,17.39-10.76l25.46-12.91c-4.3-4.3-7.17-7.17-8.61-8.61s-4.3-4.12-8.61-8.07c-4.3-3.94-7.71-6.93-10.22-8.97-2.51-2.03-5.62-4.3-9.32-6.81-3.71-2.51-7.12-4.48-10.22-5.92-10.76-4.54-20.21-4.42-28.33.36Z"/>
      </g>
    </g>
  </g>
</svg>